<svg xmlns="http://www.w3.org/2000/svg" width="16" height="16" fill="currentColor" style=""><rect id="backgroundrect" width="100%" height="100%" x="0" y="0" fill="none" stroke="none"/>
  
<g class="currentLayer" style=""><title>Layer 1</title><path fill-rule="evenodd" d="M3.9203673858642576,0.08163264393806446 a4,4 0 0 0 -4,4 v8 a4,4 0 0 0 4,4 h8 a4,4 0 0 0 4,-4 V4.081632643938065 a4,4 0 0 0 -4,-4 h-8 zm1.06,12 h3.475 c1.804,0 2.888,-0.908 2.888,-2.396 c0,-1.102 -0.7610000000000002,-1.916 -1.904,-2.034 v-0.1 c0.8320000000000002,-0.14 1.482,-0.93 1.482,-1.816 c0,-1.3 -0.9550000000000002,-2.11 -2.542,-2.11 H4.980367385864258 V12.081632643938065 zm1.3130000000000002,-4.875 V4.739632643938065 h1.78 c0.973,0 1.542,0.457 1.542,1.237 c0,0.802 -0.6040000000000002,1.23 -1.7640000000000002,1.23 H6.293367385864258 zm0,3.762 h1.8980000000000001 c1.184,0 1.81,-0.4800000000000001 1.81,-1.377 c0,-0.8850000000000002 -0.6500000000000002,-1.348 -1.8860000000000001,-1.348 H6.293367385864258 v2.725 z" id="svg_1" class="" fill-opacity="1" fill="#444C56"/><path fill="" fill-opacity="1" stroke="none" stroke-opacity="1" stroke-width="1" stroke-dasharray="none" stroke-linejoin="miter" stroke-linecap="butt" stroke-dashoffset="" fill-rule="evenodd" opacity="1" marker-start="" marker-mid="" marker-end="" id="svg_2" d="M12.57142857142857,2.938775510204078 " style="color: rgb(0, 0, 0);"/></g></svg>