<svg id="Capa_1" data-name="Capa 1" xmlns="http://www.w3.org/2000/svg" viewBox="0 0 512 407.04"><title>logo</title><path d="M506.76,242.83L388.36,117.39a19.2,19.2,0,1,0-27.92,26.36L466.4,256l-106,112.27a19.2,19.2,0,0,0,27.92,26.37l118.4-125.45A19.21,19.21,0,0,0,506.76,242.83Z" transform="translate(0 -52.48)" style="fill:#ff6c2b"/><path d="M151.57,368.26L45.61,256l106-112.26a19.2,19.2,0,0,0-27.93-26.36L5.24,242.82a19.21,19.21,0,0,0,0,26.36L123.64,394.63A19.2,19.2,0,0,0,151.57,368.26Z" transform="translate(0 -52.48)" style="fill:#ff6c2b"/><path d="M287.06,52.7a19.22,19.22,0,0,0-21.88,16.08L208.86,437.42a19.2,19.2,0,0,0,16.08,21.88,19.78,19.78,0,0,0,2.93.22,19.21,19.21,0,0,0,19-16.3L303.15,74.58A19.2,19.2,0,0,0,287.06,52.7Z" transform="translate(0 -52.48)" style="fill:#ff6c2b"/><text transform="translate(106.55 278.99) rotate(-23.89) scale(1.21 1)" style="font-size:180.14007568359375px;fill:#fafafa;stroke:#000;stroke-miterlimit:10;font-family:MV Boli">A</text><text transform="matrix(1.05, 0.1, -0.09, 1, 270.42, 251.26)" style="font-size:172.87582397460938px;fill:#fafafa;stroke:#000;stroke-miterlimit:10;font-family:MV Boli">B</text></svg>